<?xml version="1.0"?>
<svg width="24" height="24" xmlns="http://www.w3.org/2000/svg" xmlns:svg="http://www.w3.org/2000/svg">
 <g class="layer">
  <title>Layer 1</title>
  <path d="m12,4.24l0,2l2.3,0l0.93,2.54l-1.39,0.46l-2.84,0a1,1 0 0 0 -0.71,0.29l-1.7,1.71l-2.59,0l-2,0l-2,0l0,2l2,0l0,1.05c-2.24,0.25 -4,2.15 -4,4.45c0,2.47 2.03,4.5 4.5,4.5c2.47,0 4.5,-2.03 4.5,-4.5c0,-0.23 -0.04,-0.45 -0.07,-0.67l4.27,-0.85a1,1 0 0 0 0.79,-0.82l0.9,-5.4l1.03,-0.34l1.5,4.12c-1.43,0.75 -2.42,2.24 -2.42,3.96c0,2.47 2.03,4.5 4.5,4.5c2.47,0 4.5,-2.03 4.5,-4.5c0,-2.47 -2.03,-4.5 -4.5,-4.5c-0.05,0 -0.09,0.01 -0.14,0.01l-1.47,-4.01l3.11,0l0,-2l-3.84,0l-1.22,-3.34a1,1 0 0 0 -0.94,-0.66l-3,0zm-0.59,7l1.41,0l-0.69,4.15l-3.94,0.79c-0.53,-0.76 -1.3,-1.34 -2.19,-1.66l0,-1.28l3,0a1,1 0 0 0 0.71,-0.29l1.7,-1.71zm-6.91,5c1.39,0 2.5,1.11 2.5,2.5c0,1.39 -1.11,2.5 -2.5,2.5c-1.39,0 -2.5,-1.11 -2.5,-2.5c0,-1.39 1.11,-2.5 2.5,-2.5zm15,0c1.39,0 2.5,1.11 2.5,2.5c0,1.39 -1.11,2.5 -2.5,2.5c-1.39,0 -2.5,-1.11 -2.5,-2.5c0,-1.39 1.11,-2.5 2.5,-2.5z" fill="#000000" id="svg_1"/>
  <path d="m2.41,7.83l3.07,-7.53l2.68,7.44l-7.18,-4.96l8.8,-0.28l-7.37,5.32z" fill="#000000" id="svg_5"/>
 </g>
</svg>