<?xml version="1.0"?>
<svg width="24.000000000000004" height="24.000000000000004" xmlns="http://www.w3.org/2000/svg" xmlns:svg="http://www.w3.org/2000/svg">
 <g class="layer">
  <title>Layer 1</title>
  <path d="m4.93,5.25c-1.65,0 -3,1.35 -3,3l0,11c0,0.55 0.45,1 1,1l1.05,0c0.25,1.69 1.69,3 3.45,3c1.76,0 3.2,-1.31 3.45,-3l2.1,0c0.25,1.69 1.69,3 3.45,3c1.76,0 3.2,-1.31 3.45,-3l1.05,0c0.55,0 1,-0.45 1,-1l0,-5.26c0,-0.72 -0.26,-1.41 -0.72,-1.95l-4.92,-5.74c-0.57,-0.67 -1.4,-1.05 -2.28,-1.05l-9.08,0zm7,2l2.08,0c0.29,0 0.57,0.13 0.76,0.35l4.84,5.65l-7.68,0l0,-6zm-4.5,11c0.83,0 1.5,0.67 1.5,1.5c0,0.83 -0.67,1.5 -1.5,1.5c-0.83,0 -1.5,-0.67 -1.5,-1.5c0,-0.83 0.67,-1.5 1.5,-1.5zm9,0c0.83,0 1.5,0.67 1.5,1.5c0,0.83 -0.67,1.5 -1.5,1.5c-0.83,0 -1.5,-0.67 -1.5,-1.5c0,-0.83 0.67,-1.5 1.5,-1.5z" fill="#2addd2" id="svg_1"/>
  <path d="m8.83,11.76c0.46,0.79 0.88,1.6 1.42,2.29c0.53,0.67 1.27,1.2 1.93,1.81c0.64,0.59 1.9,1.37 1.43,2.02c-0.52,0.71 -1.7,-0.23 -2.41,-0.75c-0.69,-0.51 -1.38,-1.14 -2.02,-1.72l-0.63,-0.65l-0.57,-0.67l-0.56,-0.72" fill="none" id="svg_3" transform="matrix(1 0 0 1 0 0)"/>
  <rect fill="#0000ff" height="4.06" id="svg_2" width="5.7" x="6.16" y="1.18"/>
 </g>
</svg>